<svg xmlns="http://www.w3.org/2000/svg" viewBox="0 0 512 512">
  <circle cx="256" cy="256" r="230" fill="#ff6f00"/>
  <path d="M155 155
           C155 140 165 130 180 130
           C192 130 200 136 206 148
           L256 255
           L306 148
           C312 136 320 130 332 130
           C347 130 357 140 357 155
           L357 365
           C357 381 345 393 329 393
           C313 393 301 381 301 365
           L301 245
           L276 299
           C270 312 262 319 256 319
           C250 319 242 312 236 299
           L211 245
           L211 365
           C211 381 199 393 183 393
           C167 393 155 381 155 365 Z"
        fill="white"/>
</svg>
